<svg width="35" height="23" viewBox="0 0 35 23" fill="none" xmlns="http://www.w3.org/2000/svg">
<path d="M24.0001 3.6665C24.9725 3.6665 25.9052 4.05281 26.5928 4.74045C27.2804 5.42808 27.6667 6.36071 27.6667 7.33317C27.6667 8.30563 27.2804 9.23826 26.5928 9.9259C25.9052 10.6135 24.9725 10.9998 24.0001 10.9998C23.0276 10.9998 22.095 10.6135 21.4074 9.9259C20.7197 9.23826 20.3334 8.30563 20.3334 7.33317C20.3334 6.36071 20.7197 5.42808 21.4074 4.74045C22.095 4.05281 23.0276 3.6665 24.0001 3.6665ZM24.0001 12.8332C28.0517 12.8332 31.3334 14.474 31.3334 16.4998V18.3332H16.6667V16.4998C16.6667 14.474 19.9484 12.8332 24.0001 12.8332Z" fill="#6D2932"/>
<line x1="13.4305" y1="0.254365" x2="0.430462" y2="22.2544" stroke="#6D2932"/>
</svg>
