<svg width="22" height="22" viewBox="0 0 22 22" fill="none" xmlns="http://www.w3.org/2000/svg">
<g clip-path="url(#clip0_55_48)">
<path d="M17.6 17.6C16.379 17.6 15.4 18.579 15.4 19.8C15.4 20.3835 15.6318 20.9431 16.0444 21.3556C16.4569 21.7682 17.0165 22 17.6 22C18.1835 22 18.7431 21.7682 19.1556 21.3556C19.5682 20.9431 19.8 20.3835 19.8 19.8C19.8 19.2165 19.5682 18.6569 19.1556 18.2444C18.7431 17.8318 18.1835 17.6 17.6 17.6ZM0 0V2.2H2.2L6.16 10.549L4.664 13.244C4.499 13.552 4.4 13.915 4.4 14.3C4.4 14.8835 4.63178 15.4431 5.04436 15.8556C5.45694 16.2682 6.01652 16.5 6.6 16.5H19.8V14.3H7.062C6.98907 14.3 6.91912 14.271 6.86755 14.2195C6.81597 14.1679 6.787 14.0979 6.787 14.025C6.787 13.97 6.798 13.926 6.82 13.893L7.81 12.1H16.005C16.83 12.1 17.556 11.638 17.93 10.967L21.868 3.85C21.945 3.674 22 3.487 22 3.3C22 3.00826 21.8841 2.72847 21.6778 2.52218C21.4715 2.31589 21.1917 2.2 20.9 2.2H4.631L3.597 0M6.6 17.6C5.379 17.6 4.4 18.579 4.4 19.8C4.4 20.3835 4.63178 20.9431 5.04436 21.3556C5.45694 21.7682 6.01652 22 6.6 22C7.18348 22 7.74305 21.7682 8.15563 21.3556C8.56821 20.9431 8.8 20.3835 8.8 19.8C8.8 19.2165 8.56821 18.6569 8.15563 18.2444C7.74305 17.8318 7.18348 17.6 6.6 17.6Z" fill="#6D2932"/>
</g>
<defs>
<clipPath id="clip0_55_48">
<rect width="22" height="22" fill="white"/>
</clipPath>
</defs>
</svg>
