<svg width="22" height="22" viewBox="0 0 22 22" fill="none" xmlns="http://www.w3.org/2000/svg">
<path d="M11.0001 3.6665C11.9725 3.6665 12.9052 4.05281 13.5928 4.74045C14.2804 5.42808 14.6667 6.36071 14.6667 7.33317C14.6667 8.30563 14.2804 9.23826 13.5928 9.9259C12.9052 10.6135 11.9725 10.9998 11.0001 10.9998C10.0276 10.9998 9.09499 10.6135 8.40736 9.9259C7.71972 9.23826 7.33341 8.30563 7.33341 7.33317C7.33341 6.36071 7.71972 5.42808 8.40736 4.74045C9.09499 4.05281 10.0276 3.6665 11.0001 3.6665ZM11.0001 5.49984C10.5139 5.49984 10.0475 5.69299 9.70372 6.03681C9.3599 6.38062 9.16675 6.84694 9.16675 7.33317C9.16675 7.8194 9.3599 8.28572 9.70372 8.62953C10.0475 8.97335 10.5139 9.1665 11.0001 9.1665C11.4863 9.1665 11.9526 8.97335 12.2964 8.62953C12.6403 8.28572 12.8334 7.8194 12.8334 7.33317C12.8334 6.84694 12.6403 6.38062 12.2964 6.03681C11.9526 5.69299 11.4863 5.49984 11.0001 5.49984ZM11.0001 11.9165C13.4476 11.9165 18.3334 13.1357 18.3334 15.5832V18.3332H3.66675V15.5832C3.66675 13.1357 8.55258 11.9165 11.0001 11.9165ZM11.0001 13.6582C8.27758 13.6582 5.40841 14.9965 5.40841 15.5832V16.5915H16.5917V15.5832C16.5917 14.9965 13.7226 13.6582 11.0001 13.6582Z" fill="#333333" fill-opacity="0.35"/>
</svg>
